<svg t="1686106389936" class="icon" viewBox="0 0 1024 1024" version="1.1" xmlns="http://www.w3.org/2000/svg" p-id="1031" width="200" height="200"><path d="M700.081633 0h-376.163266C237.400816 0 167.183673 70.217143 167.183673 156.734694v710.530612C167.183673 953.782857 237.400816 1024 323.918367 1024h376.163266c86.517551 0 156.734694-70.217143 156.734694-156.734694v-710.530612C856.816327 70.217143 786.599184 0 700.081633 0zM229.877551 208.979592h564.244898v522.448979H229.877551V208.979592z m94.040816-146.285714h376.163266c48.274286 0 87.771429 36.780408 92.995918 83.591836H230.922449C236.146939 99.474286 275.644082 62.693878 323.918367 62.693878z m376.163266 898.612244h-376.163266C272.091429 961.306122 229.877551 919.092245 229.877551 867.265306V794.122449h564.244898v73.142857c0 51.826939-42.213878 94.040816-94.040816 94.040816z" fill="#66CC00" p-id="1032"></path><path d="M532.897959 864.130612m-41.795918 0a41.795918 41.795918 0 1 0 83.591837 0 41.795918 41.795918 0 1 0-83.591837 0Z" fill="#66CC00" p-id="1033"></path></svg>